{
  "accessors": [
    {
      "bufferView": 2,
      "componentType": 5126,
      "count": 24,
      "max": [
        -2.037882089614868,
        6.696355819702148,
        17.437015533447266
      ],
      "min": [
        -2.120487928390503,
        1.2480800151824951,
        14.336276054382324
      ],
      "type": "VEC3"
    },
    {
      "bufferView": 2,
      "byteOffset": 288,
      "componentType": 5126,
      "count": 24,
      "type": "VEC3"
    },
    {
      "bufferView": 1,
      "componentType": 5126,
      "count": 24,
      "type": "VEC2"
    },
    {
      "bufferView": 0,
      "componentType": 5125,
      "count": 36,
      "type": "SCALAR"
    },
    {
      "bufferView": 2,
      "byteOffset": 576,
      "componentType": 5126,
      "count": 28,
      "max": [
        -3.375169038772583,
        28.0936222076416,
        18.003673553466797
      ],
      "min": [
        -5.2020368576049805,
        3.788022041320801,
        6.684875011444092
      ],
      "type": "VEC3"
    },
    {
      "bufferView": 2,
      "byteOffset": 912,
      "componentType": 5126,
      "count": 28,
      "type": "VEC3"
    },
    {
      "bufferView": 1,
      "byteOffset": 192,
      "componentType": 5126,
      "count": 28,
      "type": "VEC2"
    },
    {
      "bufferView": 0,
      "byteOffset": 144,
      "componentType": 5125,
      "count": 42,
      "type": "SCALAR"
    },
    {
      "bufferView": 2,
      "byteOffset": 1248,
      "componentType": 5126,
      "count": 27,
      "max": [
        14.960773468017578,
        9.1145601272583,
        19.386404037475586
      ],
      "min": [
        10.56100845336914,
        4.515401840209961,
        0.5583930015563965
      ],
      "type": "VEC3"
    },
    {
      "bufferView": 2,
      "byteOffset": 1572,
      "componentType": 5126,
      "count": 27,
      "type": "VEC3"
    },
    {
      "bufferView": 1,
      "byteOffset": 416,
      "componentType": 5126,
      "count": 27,
      "type": "VEC2"
    },
    {
      "bufferView": 0,
      "byteOffset": 312,
      "componentType": 5125,
      "count": 72,
      "type": "SCALAR"
    },
    {
      "bufferView": 2,
      "byteOffset": 1896,
      "componentType": 5126,
      "count": 4,
      "max": [
        10.101046562194824,
        4.837204933166504,
        15.382862091064453
      ],
      "min": [
        7.616666793823242,
        4.682465076446533,
        12.893956184387207
      ],
      "type": "VEC3"
    },
    {
      "bufferView": 2,
      "byteOffset": 1944,
      "componentType": 5126,
      "count": 4,
      "type": "VEC3"
    },
    {
      "bufferView": 1,
      "byteOffset": 632,
      "componentType": 5126,
      "count": 4,
      "type": "VEC2"
    },
    {
      "bufferView": 0,
      "byteOffset": 600,
      "componentType": 5125,
      "count": 6,
      "type": "SCALAR"
    },
    {
      "bufferView": 2,
      "byteOffset": 1992,
      "componentType": 5126,
      "count": 20,
      "max": [
        9.757506370544434,
        5.0327467918396,
        15.383699417114258
      ],
      "min": [
        -1.426604986190796,
        3.4509389400482178,
        3.936556100845337
      ],
      "type": "VEC3"
    },
    {
      "bufferView": 2,
      "byteOffset": 2232,
      "componentType": 5126,
      "count": 20,
      "type": "VEC3"
    },
    {
      "bufferView": 1,
      "byteOffset": 664,
      "componentType": 5126,
      "count": 20,
      "type": "VEC2"
    },
    {
      "bufferView": 0,
      "byteOffset": 624,
      "componentType": 5125,
      "count": 30,
      "type": "SCALAR"
    },
    {
      "bufferView": 2,
      "byteOffset": 2472,
      "componentType": 5126,
      "count": 16,
      "max": [
        10.237110137939453,
        6.756814956665039,
        1.9890880584716797
      ],
      "min": [
        -3.5246639251708984,
        1.662315011024475,
        1.612028956413269
      ],
      "type": "VEC3"
    },
    {
      "bufferView": 2,
      "byteOffset": 2664,
      "componentType": 5126,
      "count": 16,
      "type": "VEC3"
    },
    {
      "bufferView": 3,
      "componentType": 5126,
      "count": 16,
      "type": "VEC4"
    },
    {
      "bufferView": 1,
      "byteOffset": 824,
      "componentType": 5126,
      "count": 16,
      "type": "VEC2"
    },
    {
      "bufferView": 0,
      "byteOffset": 744,
      "componentType": 5125,
      "count": 54,
      "type": "SCALAR"
    },
    {
      "bufferView": 2,
      "byteOffset": 2856,
      "componentType": 5126,
      "count": 4,
      "max": [
        5.267796039581299,
        22.173171997070313,
        22.821327209472656
      ],
      "min": [
        1.2587089538574219,
        22.173171997070313,
        15.54928970336914
      ],
      "type": "VEC3"
    },
    {
      "bufferView": 2,
      "byteOffset": 2904,
      "componentType": 5126,
      "count": 4,
      "type": "VEC3"
    },
    {
      "bufferView": 1,
      "byteOffset": 952,
      "componentType": 5126,
      "count": 4,
      "type": "VEC2"
    },
    {
      "bufferView": 0,
      "byteOffset": 960,
      "componentType": 5125,
      "count": 6,
      "type": "SCALAR"
    },
    {
      "bufferView": 2,
      "byteOffset": 2952,
      "componentType": 5126,
      "count": 4,
      "max": [
        12.115612030029297,
        22.302114486694336,
        22.584381103515625
      ],
      "min": [
        7.976268768310547,
        22.302114486694336,
        14.938931465148926
      ],
      "type": "VEC3"
    },
    {
      "bufferView": 2,
      "byteOffset": 3000,
      "componentType": 5126,
      "count": 4,
      "type": "VEC3"
    },
    {
      "bufferView": 1,
      "byteOffset": 984,
      "componentType": 5126,
      "count": 4,
      "type": "VEC2"
    },
    {
      "bufferView": 0,
      "byteOffset": 984,
      "componentType": 5125,
      "count": 6,
      "type": "SCALAR"
    },
    {
      "bufferView": 2,
      "byteOffset": 3048,
      "componentType": 5126,
      "count": 28,
      "max": [
        15.367107391357422,
        4.870937824249268,
        19.79307746887207
      ],
      "min": [
        -3.1559219360351563,
        1.5211759805679321,
        15.692020416259766
      ],
      "type": "VEC3"
    },
    {
      "bufferView": 2,
      "byteOffset": 3384,
      "componentType": 5126,
      "count": 28,
      "type": "VEC3"
    },
    {
      "bufferView": 1,
      "byteOffset": 1016,
      "componentType": 5126,
      "count": 28,
      "type": "VEC2"
    },
    {
      "bufferView": 0,
      "byteOffset": 1008,
      "componentType": 5125,
      "count": 60,
      "type": "SCALAR"
    },
    {
      "bufferView": 2,
      "byteOffset": 3720,
      "componentType": 5126,
      "count": 20,
      "max": [
        19.354711532592773,
        17.458538055419922,
        7.925786972045898
      ],
      "min": [
        -5.170866966247559,
        10.840819358825684,
        1.9356600046157837
      ],
      "type": "VEC3"
    },
    {
      "bufferView": 2,
      "byteOffset": 3960,
      "componentType": 5126,
      "count": 20,
      "type": "VEC3"
    },
    {
      "bufferView": 1,
      "byteOffset": 1240,
      "componentType": 5126,
      "count": 20,
      "type": "VEC2"
    },
    {
      "bufferView": 0,
      "byteOffset": 1248,
      "componentType": 5125,
      "count": 30,
      "type": "SCALAR"
    },
    {
      "bufferView": 2,
      "byteOffset": 4200,
      "componentType": 5126,
      "count": 65,
      "max": [
        13.615945816040039,
        4.090527057647705,
        15.716455459594727
      ],
      "min": [
        -2.098773956298828,
        2.2124550342559814,
        15.498470306396484
      ],
      "type": "VEC3"
    },
    {
      "bufferView": 2,
      "byteOffset": 4980,
      "componentType": 5126,
      "count": 65,
      "type": "VEC3"
    },
    {
      "bufferView": 1,
      "byteOffset": 1400,
      "componentType": 5126,
      "count": 65,
      "type": "VEC2"
    },
    {
      "bufferView": 0,
      "byteOffset": 1368,
      "componentType": 5125,
      "count": 102,
      "type": "SCALAR"
    },
    {
      "bufferView": 2,
      "byteOffset": 5760,
      "componentType": 5126,
      "count": 600,
      "max": [
        19.452943801879883,
        29.733808517456055,
        31.24545669555664
      ],
      "min": [
        -4.5066118240356445,
        1.5433069467544556,
        0.4647490084171295
      ],
      "type": "VEC3"
    },
    {
      "bufferView": 2,
      "byteOffset": 12960,
      "componentType": 5126,
      "count": 600,
      "type": "VEC3"
    },
    {
      "bufferView": 1,
      "byteOffset": 1920,
      "componentType": 5126,
      "count": 600,
      "type": "VEC2"
    },
    {
      "bufferView": 0,
      "byteOffset": 1776,
      "componentType": 5125,
      "count": 1032,
      "type": "SCALAR"
    },
    {
      "bufferView": 2,
      "byteOffset": 20160,
      "componentType": 5126,
      "count": 166,
      "max": [
        -1.9290289878845215,
        4.227625846862793,
        8.363197326660156
      ],
      "min": [
        -2.0507559776306152,
        2.636897087097168,
        4.893168926239014
      ],
      "type": "VEC3"
    },
    {
      "bufferView": 2,
      "byteOffset": 22152,
      "componentType": 5126,
      "count": 166,
      "type": "VEC3"
    },
    {
      "bufferView": 1,
      "byteOffset": 6720,
      "componentType": 5126,
      "count": 166,
      "type": "VEC2"
    },
    {
      "bufferView": 0,
      "byteOffset": 5904,
      "componentType": 5125,
      "count": 384,
      "type": "SCALAR"
    },
    {
      "bufferView": 2,
      "byteOffset": 24144,
      "componentType": 5126,
      "count": 24,
      "max": [
        13.559860229492188,
        2.5648019313812256,
        15.794061660766602
      ],
      "min": [
        -6.13460111618042,
        1.6281510591506958,
        15.590511322021484
      ],
      "type": "VEC3"
    },
    {
      "bufferView": 2,
      "byteOffset": 24432,
      "componentType": 5126,
      "count": 24,
      "type": "VEC3"
    },
    {
      "bufferView": 1,
      "byteOffset": 8048,
      "componentType": 5126,
      "count": 24,
      "type": "VEC2"
    },
    {
      "bufferView": 0,
      "byteOffset": 7440,
      "componentType": 5125,
      "count": 48,
      "type": "SCALAR"
    },
    {
      "bufferView": 2,
      "byteOffset": 24720,
      "componentType": 5126,
      "count": 106,
      "max": [
        7.312404155731201,
        23.193500518798828,
        9.855842590332031
      ],
      "min": [
        -5.129502773284912,
        1.8540019989013672,
        0.8305270075798035
      ],
      "type": "VEC3"
    },
    {
      "bufferView": 2,
      "byteOffset": 25992,
      "componentType": 5126,
      "count": 106,
      "type": "VEC3"
    },
    {
      "bufferView": 1,
      "byteOffset": 8240,
      "componentType": 5126,
      "count": 106,
      "type": "VEC2"
    },
    {
      "bufferView": 0,
      "byteOffset": 7632,
      "componentType": 5125,
      "count": 186,
      "type": "SCALAR"
    },
    {
      "bufferView": 2,
      "byteOffset": 27264,
      "componentType": 5126,
      "count": 128,
      "max": [
        21.970552444458008,
        32.60177993774414,
        33.73799514770508
      ],
      "min": [
        -12.168505668640137,
        -19.846633911132813,
        -3.1709110736846924
      ],
      "type": "VEC3"
    },
    {
      "bufferView": 2,
      "byteOffset": 28800,
      "componentType": 5126,
      "count": 128,
      "type": "VEC3"
    },
    {
      "bufferView": 1,
      "byteOffset": 9088,
      "componentType": 5126,
      "count": 128,
      "type": "VEC2"
    },
    {
      "bufferView": 0,
      "byteOffset": 8376,
      "componentType": 5125,
      "count": 294,
      "type": "SCALAR"
    },
    {
      "bufferView": 2,
      "byteOffset": 30336,
      "componentType": 5126,
      "count": 80,
      "max": [
        10.52783203125,
        2.014238119125366,
        18.945722579956055
      ],
      "min": [
        -0.5923309922218323,
        1.4411369562149048,
        15.507430076599121
      ],
      "type": "VEC3"
    },
    {
      "bufferView": 2,
      "byteOffset": 31296,
      "componentType": 5126,
      "count": 80,
      "type": "VEC3"
    },
    {
      "bufferView": 1,
      "byteOffset": 10112,
      "componentType": 5126,
      "count": 80,
      "type": "VEC2"
    },
    {
      "bufferView": 0,
      "byteOffset": 9552,
      "componentType": 5125,
      "count": 210,
      "type": "SCALAR"
    },
    {
      "bufferView": 2,
      "byteOffset": 32256,
      "componentType": 5126,
      "count": 824,
      "max": [
        12.791991233825684,
        22.52509307861328,
        23.423046112060547
      ],
      "min": [
        7.282591819763184,
        22.133113861083984,
        7.179365158081055
      ],
      "type": "VEC3"
    },
    {
      "bufferView": 2,
      "byteOffset": 42144,
      "componentType": 5126,
      "count": 824,
      "type": "VEC3"
    },
    {
      "bufferView": 1,
      "byteOffset": 10752,
      "componentType": 5126,
      "count": 824,
      "type": "VEC2"
    },
    {
      "bufferView": 0,
      "byteOffset": 10392,
      "componentType": 5125,
      "count": 2568,
      "type": "SCALAR"
    },
    {
      "bufferView": 2,
      "byteOffset": 52032,
      "componentType": 5126,
      "count": 61,
      "max": [
        18.325326919555664,
        4.98441219329834,
        2.5785739421844482
      ],
      "min": [
        -8.98823356628418,
        -19.46628189086914,
        1.487908959388733
      ],
      "type": "VEC3"
    },
    {
      "bufferView": 2,
      "byteOffset": 52764,
      "componentType": 5126,
      "count": 61,
      "type": "VEC3"
    },
    {
      "bufferView": 3,
      "byteOffset": 256,
      "componentType": 5126,
      "count": 61,
      "type": "VEC4"
    },
    {
      "bufferView": 1,
      "byteOffset": 17344,
      "componentType": 5126,
      "count": 61,
      "type": "VEC2"
    },
    {
      "bufferView": 0,
      "byteOffset": 20664,
      "componentType": 5125,
      "count": 120,
      "type": "SCALAR"
    },
    {
      "bufferView": 2,
      "byteOffset": 53496,
      "componentType": 5126,
      "count": 1504,
      "max": [
        7.572210788726807,
        4.73992919921875,
        11.88405990600586
      ],
      "min": [
        0.9170920252799988,
        4.416252136230469,
        2.611654043197632
      ],
      "type": "VEC3"
    },
    {
      "bufferView": 2,
      "byteOffset": 71544,
      "componentType": 5126,
      "count": 1504,
      "type": "VEC3"
    },
    {
      "bufferView": 1,
      "byteOffset": 17832,
      "componentType": 5126,
      "count": 1504,
      "type": "VEC2"
    },
    {
      "bufferView": 0,
      "byteOffset": 21144,
      "componentType": 5125,
      "count": 6672,
      "type": "SCALAR"
    },
    {
      "bufferView": 2,
      "byteOffset": 89592,
      "componentType": 5126,
      "count": 424,
      "max": [
        11.084680557250977,
        5.216210842132568,
        15.722153663635254
      ],
      "min": [
        -2.033737897872925,
        4.1789751052856445,
        12.481271743774414
      ],
      "type": "VEC3"
    },
    {
      "bufferView": 2,
      "byteOffset": 94680,
      "componentType": 5126,
      "count": 424,
      "type": "VEC3"
    },
    {
      "bufferView": 1,
      "byteOffset": 29864,
      "componentType": 5126,
      "count": 424,
      "type": "VEC2"
    },
    {
      "bufferView": 0,
      "byteOffset": 47832,
      "componentType": 5125,
      "count": 744,
      "type": "SCALAR"
    },
    {
      "bufferView": 2,
      "byteOffset": 99768,
      "componentType": 5126,
      "count": 3028,
      "max": [
        10.805804252624512,
        5.330272197723389,
        15.598833084106445
      ],
      "min": [
        -2.2129878997802734,
        3.1642119884490967,
        1.6113359928131104
      ],
      "type": "VEC3"
    },
    {
      "bufferView": 2,
      "byteOffset": 136104,
      "componentType": 5126,
      "count": 3028,
      "type": "VEC3"
    },
    {
      "bufferView": 1,
      "byteOffset": 33256,
      "componentType": 5126,
      "count": 3028,
      "type": "VEC2"
    },
    {
      "bufferView": 0,
      "byteOffset": 50808,
      "componentType": 5125,
      "count": 8832,
      "type": "SCALAR"
    },
    {
      "bufferView": 2,
      "byteOffset": 172440,
      "componentType": 5126,
      "count": 360,
      "max": [
        4.800923824310303,
        4.9999518394470215,
        8.488064765930176
      ],
      "min": [
        3.6172609329223633,
        3.1120970249176025,
        6.173574924468994
      ],
      "type": "VEC3"
    },
    {
      "bufferView": 2,
      "byteOffset": 176760,
      "componentType": 5126,
      "count": 360,
      "type": "VEC3"
    },
    {
      "bufferView": 3,
      "byteOffset": 1232,
      "componentType": 5126,
      "count": 360,
      "type": "VEC4"
    },
    {
      "bufferView": 1,
      "byteOffset": 57480,
      "componentType": 5126,
      "count": 360,
      "type": "VEC2"
    },
    {
      "bufferView": 0,
      "byteOffset": 86136,
      "componentType": 5125,
      "count": 840,
      "type": "SCALAR"
    },
    {
      "bufferView": 2,
      "byteOffset": 181080,
      "componentType": 5126,
      "count": 269,
      "max": [
        7.971228122711182,
        22.449264526367188,
        14.61735725402832
      ],
      "min": [
        7.599394798278809,
        21.682693481445313,
        13.456440925598145
      ],
      "type": "VEC3"
    },
    {
      "bufferView": 2,
      "byteOffset": 184308,
      "componentType": 5126,
      "count": 269,
      "type": "VEC3"
    },
    {
      "bufferView": 1,
      "byteOffset": 60360,
      "componentType": 5126,
      "count": 269,
      "type": "VEC2"
    },
    {
      "bufferView": 0,
      "byteOffset": 89496,
      "componentType": 5125,
      "count": 636,
      "type": "SCALAR"
    },
    {
      "bufferView": 2,
      "byteOffset": 187536,
      "componentType": 5126,
      "count": 149,
      "max": [
        -1.9394530057907104,
        6.4540510177612305,
        17.205036163330078
      ],
      "min": [
        -6.184183120727539,
        1.3547790050506592,
        1.4266380071640015
      ],
      "type": "VEC3"
    },
    {
      "bufferView": 2,
      "byteOffset": 189324,
      "componentType": 5126,
      "count": 149,
      "type": "VEC3"
    },
    {
      "bufferView": 1,
      "byteOffset": 62512,
      "componentType": 5126,
      "count": 149,
      "type": "VEC2"
    },
    {
      "bufferView": 0,
      "byteOffset": 92040,
      "componentType": 5125,
      "count": 342,
      "type": "SCALAR"
    },
    {
      "bufferView": 2,
      "byteOffset": 191112,
      "componentType": 5126,
      "count": 80,
      "max": [
        19.354711532592773,
        26.997453689575195,
        8.221151351928711
      ],
      "min": [
        -5.170866966247559,
        10.72993278503418,
        2.939207077026367
      ],
      "type": "VEC3"
    },
    {
      "bufferView": 2,
      "byteOffset": 192072,
      "componentType": 5126,
      "count": 80,
      "type": "VEC3"
    },
    {
      "bufferView": 1,
      "byteOffset": 63704,
      "componentType": 5126,
      "count": 80,
      "type": "VEC2"
    },
    {
      "bufferView": 0,
      "byteOffset": 93408,
      "componentType": 5125,
      "count": 180,
      "type": "SCALAR"
    },
    {
      "bufferView": 2,
      "byteOffset": 193032,
      "componentType": 5126,
      "count": 59,
      "max": [
        16.000707626342773,
        30.225019454956055,
        30.295673370361328
      ],
      "min": [
        -10.242134094238281,
        5.595034122467041,
        1.0769139528274536
      ],
      "type": "VEC3"
    },
    {
      "bufferView": 2,
      "byteOffset": 193740,
      "componentType": 5126,
      "count": 59,
      "type": "VEC3"
    },
    {
      "bufferView": 1,
      "byteOffset": 64344,
      "componentType": 5126,
      "count": 59,
      "type": "VEC2"
    },
    {
      "bufferView": 0,
      "byteOffset": 94128,
      "componentType": 5125,
      "count": 114,
      "type": "SCALAR"
    },
    {
      "bufferView": 2,
      "byteOffset": 194448,
      "componentType": 5126,
      "count": 972,
      "max": [
        6.308471202850342,
        22.429805755615234,
        23.07432746887207
      ],
      "min": [
        0.29087400436401367,
        22.077259063720703,
        15.004229545593262
      ],
      "type": "VEC3"
    },
    {
      "bufferView": 2,
      "byteOffset": 206112,
      "componentType": 5126,
      "count": 972,
      "type": "VEC3"
    },
    {
      "bufferView": 1,
      "byteOffset": 64816,
      "componentType": 5126,
      "count": 972,
      "type": "VEC2"
    },
    {
      "bufferView": 0,
      "byteOffset": 94584,
      "componentType": 5125,
      "count": 2904,
      "type": "SCALAR"
    }
  ],
  "asset": {
    "generator": "fab-model-conversion",
    "version": "2.0"
  },
  "bufferViews": [
    {
      "buffer": 0,
      "byteLength": 106200,
      "target": 34963
    },
    {
      "buffer": 0,
      "byteLength": 72592,
      "byteOffset": 106200,
      "byteStride": 8,
      "target": 34962
    },
    {
      "buffer": 0,
      "byteLength": 217776,
      "byteOffset": 178792,
      "byteStride": 12,
      "target": 34962
    },
    {
      "buffer": 0,
      "byteLength": 6992,
      "byteOffset": 396568,
      "byteStride": 16,
      "target": 34962
    }
  ],
  "buffers": [
    {
      "byteLength": 403560,
      "uri": "scene.bin"
    }
  ],
  "extensionsUsed": [
    "KHR_materials_emissive_strength",
    "KHR_materials_specular",
    "KHR_materials_transmission"
  ],
  "images": [
    {
      "uri": "textures/pasted__aiStandardSurface16SG_baseColor.png"
    },
    {
      "uri": "textures/pasted__aiStandardSurface16SG_emissive.png"
    },
    {
      "uri": "textures/pasted__aiStandardSurface23SG_baseColor.png"
    },
    {
      "uri": "textures/pasted__baseboardSG_baseColor.png"
    },
    {
      "uri": "textures/pasted__door1SG_baseColor.png"
    },
    {
      "uri": "textures/pasted__glass2varSG_baseColor.png"
    },
    {
      "uri": "textures/pasted__glass2varSG_transmission.png"
    },
    {
      "uri": "textures/pasted__glassSG_metallicRoughness.png"
    },
    {
      "uri": "textures/pasted__ground_SG_baseColor.png"
    },
    {
      "uri": "textures/pasted__ground_SG_normal.png"
    },
    {
      "uri": "textures/pasted__kovrikSG_normal.png"
    },
    {
      "uri": "textures/pasted__ramiOldSG_baseColor.png"
    },
    {
      "uri": "textures/pasted__ruchkiSG_baseColor.png"
    },
    {
      "uri": "textures/pasted__ruchkiSG_normal.png"
    },
    {
      "uri": "textures/pasted__ruuuuchkaSG_baseColor.png"
    }
  ],
  "materials": [
    {
      "alphaMode": "BLEND",
      "doubleSided": true,
      "name": "initialShadingGroup",
      "pbrMetallicRoughness": {
        "baseColorFactor": [
          1.0,
          1.0,
          1.0,
          0.0
        ],
        "metallicFactor": 0.0,
        "roughnessFactor": 0.6
      }
    },
    {
      "doubleSided": true,
      "name": "lambert3SG",
      "pbrMetallicRoughness": {
        "baseColorFactor": [
          0.032625626209477884,
          0.0746260950221307,
          0.004061989173226297,
          1.0
        ],
        "metallicFactor": 0.0,
        "roughnessFactor": 0.6
      }
    },
    {
      "doubleSided": true,
      "emissiveFactor": [
        0.8698951270991884,
        0.7005423078360331,
        0.45561856389271527
      ],
      "extensions": {
        "KHR_materials_emissive_strength": {
          "emissiveStrength": 1.2651360420161937
        }
      },
      "name": "lambert4SG",
      "pbrMetallicRoughness": {
        "baseColorFactor": [
          0.5351720144051213,
          0.36360914536156974,
          0.10996614850632945,
          1.0
        ],
        "metallicFactor": 0.0,
        "roughnessFactor": 0.6
      }
    },
    {
      "alphaMode": "BLEND",
      "doubleSided": true,
      "emissiveFactor": [
        0.535688234,
        0.535688234,
        0.535688234
      ],
      "emissiveTexture": {
        "index": 1
      },
      "name": "pasted__aiStandardSurface16SG",
      "pbrMetallicRoughness": {
        "baseColorTexture": {
          "index": 0
        },
        "metallicFactor": 0.0,
        "roughnessFactor": 0.6
      }
    },
    {
      "doubleSided": true,
      "emissiveFactor": [
        1.0,
        1.0,
        1.0
      ],
      "emissiveTexture": {
        "index": 2
      },
      "name": "pasted__aiStandardSurface23SG",
      "pbrMetallicRoughness": {
        "baseColorTexture": {
          "index": 2
        },
        "metallicFactor": 0.0,
        "roughnessFactor": 0.6
      }
    },
    {
      "doubleSided": true,
      "emissiveFactor": [
        0.7788375033,
        0.7788375033,
        0.7788375033
      ],
      "emissiveTexture": {
        "index": 3
      },
      "name": "pasted__baseboardSG",
      "pbrMetallicRoughness": {
        "baseColorTexture": {
          "index": 3
        },
        "metallicFactor": 0.0,
        "roughnessFactor": 0.6
      }
    },
    {
      "doubleSided": true,
      "extensions": {
        "KHR_materials_specular": {
          "specularFactor": 0
        }
      },
      "name": "pasted__blackSG",
      "pbrMetallicRoughness": {
        "baseColorFactor": [
          0.0,
          0.0,
          0.0,
          1.0
        ],
        "metallicFactor": 0.0,
        "roughnessFactor": 0.6
      }
    },
    {
      "doubleSided": true,
      "emissiveFactor": [
        1.0,
        1.0,
        1.0
      ],
      "emissiveTexture": {
        "index": 2
      },
      "extensions": {
        "KHR_materials_emissive_strength": {
          "emissiveStrength": 2.0553711674
        },
        "KHR_materials_specular": {
          "specularColorFactor": [
            1.0,
            1.0,
            1.0
          ],
          "specularFactor": 0.2602457023
        }
      },
      "name": "pasted__brownSG",
      "pbrMetallicRoughness": {
        "baseColorTexture": {
          "index": 2
        },
        "metallicFactor": 0.6188908746,
        "roughnessFactor": 0.6
      }
    },
    {
      "doubleSided": true,
      "emissiveFactor": [
        0.5964755513,
        0.5964755513,
        0.5964755513
      ],
      "emissiveTexture": {
        "index": 4
      },
      "name": "pasted__door1SG",
      "pbrMetallicRoughness": {
        "baseColorTexture": {
          "index": 4
        },
        "metallicFactor": 0.0,
        "roughnessFactor": 0.6
      }
    },
    {
      "doubleSided": true,
      "emissiveFactor": [
        0.2317516473,
        0.2317516473,
        0.2317516473
      ],
      "emissiveTexture": {
        "index": 3
      },
      "name": "pasted__doorBRSG",
      "pbrMetallicRoughness": {
        "baseColorTexture": {
          "index": 3
        },
        "metallicFactor": 0.0,
        "roughnessFactor": 0.6
      }
    },
    {
      "alphaMode": "BLEND",
      "doubleSided": true,
      "emissiveFactor": [
        0.14396495307984628,
        0.10648659685676848,
        0.018225698252283307
      ],
      "extensions": {
        "KHR_materials_transmission": {
          "transmissionFactor": 1.0,
          "transmissionTexture": {
            "index": 6
          }
        }
      },
      "name": "pasted__glass2varSG",
      "pbrMetallicRoughness": {
        "baseColorTexture": {
          "index": 5
        },
        "metallicFactor": 0.0,
        "roughnessFactor": 0.6
      }
    },
    {
      "alphaMode": "BLEND",
      "doubleSided": true,
      "emissiveFactor": [
        0.04514445130642691,
        0.02940568610332476,
        0.00031292645662884313
      ],
      "extensions": {
        "KHR_materials_specular": {
          "specularColorFactor": [
            1.0,
            1.0,
            1.0
          ],
          "specularFactor": 0.6614419967
        },
        "KHR_materials_transmission": {
          "transmissionFactor": 1.0,
          "transmissionTexture": {
            "index": 6
          }
        }
      },
      "name": "pasted__glassSG",
      "pbrMetallicRoughness": {
        "baseColorTexture": {
          "index": 5
        },
        "metallicFactor": 0.0,
        "metallicRoughnessTexture": {
          "index": 7
        },
        "roughnessFactor": 0.7343867775
      }
    },
    {
      "doubleSided": true,
      "emissiveFactor": [
        0.2317516473,
        0.2317516473,
        0.2317516473
      ],
      "emissiveTexture": {
        "index": 8
      },
      "extensions": {
        "KHR_materials_specular": {
          "specularColorFactor": [
            1.0,
            1.0,
            1.0
          ],
          "specularFactor": 0.0231751647
        }
      },
      "name": "pasted__ground_SG",
      "normalTexture": {
        "index": 9
      },
      "pbrMetallicRoughness": {
        "baseColorTexture": {
          "index": 8
        },
        "metallicFactor": 0.0,
        "roughnessFactor": 0.5459460938
      }
    },
    {
      "doubleSided": true,
      "emissiveFactor": [
        0.353326282,
        0.353326282,
        0.353326282
      ],
      "emissiveTexture": {
        "index": 8
      },
      "name": "pasted__kovrikSG",
      "normalTexture": {
        "index": 10,
        "scale": 0.4182927274053541
      },
      "pbrMetallicRoughness": {
        "baseColorTexture": {
          "index": 8
        },
        "metallicFactor": 0.0,
        "roughnessFactor": 0.6
      }
    },
    {
      "doubleSided": true,
      "name": "pasted__lambert8SG",
      "pbrMetallicRoughness": {
        "metallicFactor": 0.0,
        "roughnessFactor": 0.6
      }
    },
    {
      "doubleSided": true,
      "name": "pasted__lightSG",
      "pbrMetallicRoughness": {
        "metallicFactor": 0.0,
        "roughnessFactor": 0.6
      }
    },
    {
      "doubleSided": true,
      "emissiveFactor": [
        1.0,
        1.0,
        1.0
      ],
      "emissiveTexture": {
        "index": 2
      },
      "name": "pasted__pasted__pPlane2SG",
      "pbrMetallicRoughness": {
        "baseColorTexture": {
          "index": 2
        },
        "metallicFactor": 0.0,
        "roughnessFactor": 0.6
      }
    },
    {
      "doubleSided": true,
      "name": "pasted__petliSG",
      "pbrMetallicRoughness": {
        "baseColorFactor": [
          0.0435633654,
          0.1213499773,
          0.0820209563,
          1.0
        ],
        "metallicFactor": 0.0,
        "roughnessFactor": 0.6
      }
    },
    {
      "doubleSided": true,
      "emissiveFactor": [
        0.5964755513,
        0.5964755513,
        0.5964755513
      ],
      "emissiveTexture": {
        "index": 11
      },
      "name": "pasted__ramiOldSG",
      "pbrMetallicRoughness": {
        "baseColorTexture": {
          "index": 11
        },
        "metallicFactor": 0.0,
        "roughnessFactor": 0.6
      }
    },
    {
      "doubleSided": true,
      "emissiveFactor": [
        0.535688234,
        0.535688234,
        0.535688234
      ],
      "emissiveTexture": {
        "index": 11
      },
      "name": "pasted__ramiSG",
      "pbrMetallicRoughness": {
        "baseColorTexture": {
          "index": 11
        },
        "metallicFactor": 0.0,
        "roughnessFactor": 0.6
      }
    },
    {
      "doubleSided": true,
      "emissiveTexture": {
        "index": 11
      },
      "name": "pasted__ruchkiSG",
      "normalTexture": {
        "index": 13
      },
      "pbrMetallicRoughness": {
        "baseColorTexture": {
          "index": 12
        },
        "roughnessFactor": 0.3878990687
      }
    },
    {
      "doubleSided": true,
      "extensions": {
        "KHR_materials_specular": {
          "specularColorFactor": [
            1.0,
            1.0,
            1.0
          ],
          "specularFactor": 0.3149542879
        }
      },
      "name": "pasted__ruuuuchkaSG",
      "pbrMetallicRoughness": {
        "baseColorTexture": {
          "index": 14
        },
        "metallicFactor": 0.837725217,
        "roughnessFactor": 0.6
      }
    },
    {
      "doubleSided": true,
      "emissiveFactor": [
        0.5964755513,
        0.5964755513,
        0.5964755513
      ],
      "emissiveTexture": {
        "index": 4
      },
      "extensions": {
        "KHR_materials_specular": {
          "specularColorFactor": [
            1.0,
            1.0,
            1.0
          ],
          "specularFactor": 0.0
        }
      },
      "name": "pasted__sideLeftwallSG",
      "pbrMetallicRoughness": {
        "baseColorTexture": {
          "index": 4
        },
        "metallicFactor": 0.0,
        "roughnessFactor": 0.6
      }
    },
    {
      "doubleSided": true,
      "emissiveFactor": [
        0.718050186,
        0.718050186,
        0.718050186
      ],
      "emissiveTexture": {
        "index": 3
      },
      "name": "pasted__step1varSG",
      "pbrMetallicRoughness": {
        "baseColorTexture": {
          "index": 3
        },
        "metallicFactor": 0.0,
        "roughnessFactor": 0.6
      }
    },
    {
      "doubleSided": true,
      "emissiveFactor": [
        0.5964755513,
        0.5964755513,
        0.5964755513
      ],
      "emissiveTexture": {
        "index": 3
      },
      "name": "pasted__step2var_SG",
      "pbrMetallicRoughness": {
        "baseColorTexture": {
          "index": 3
        },
        "metallicFactor": 0.0,
        "roughnessFactor": 0.6
      }
    },
    {
      "doubleSided": true,
      "emissiveFactor": [
        1.0,
        1.0,
        1.0
      ],
      "emissiveTexture": {
        "index": 2
      },
      "name": "pasted__top1SG",
      "pbrMetallicRoughness": {
        "baseColorTexture": {
          "index": 2
        },
        "metallicFactor": 0.0,
        "roughnessFactor": 0.6
      }
    },
    {
      "doubleSided": true,
      "emissiveFactor": [
        1.0,
        1.0,
        1.0
      ],
      "emissiveTexture": {
        "index": 14
      },
      "extensions": {
        "KHR_materials_emissive_strength": {
          "emissiveStrength": 1.08277409
        }
      },
      "name": "pasted__wallRoomSG",
      "pbrMetallicRoughness": {
        "baseColorTexture": {
          "index": 14
        },
        "metallicFactor": 0.0,
        "roughnessFactor": 0.6
      }
    },
    {
      "doubleSided": true,
      "emissiveFactor": [
        0.9308464273,
        0.8237205448,
        0.6042051129
      ],
      "extensions": {
        "KHR_materials_emissive_strength": {
          "emissiveStrength": 1.08277409
        }
      },
      "name": "pasted__windowSG",
      "pbrMetallicRoughness": {
        "baseColorFactor": [
          0.7286880375,
          0.6682287876,
          0.5274266414,
          1.0
        ],
        "metallicFactor": 0.0,
        "roughnessFactor": 0.6
      }
    }
  ],
  "meshes": [
    {
      "name": "Object_0",
      "primitives": [
        {
          "attributes": {
            "NORMAL": 1,
            "POSITION": 0,
            "TEXCOORD_0": 2
          },
          "indices": 3,
          "material": 0,
          "mode": 4
        }
      ]
    },
    {
      "name": "Object_1",
      "primitives": [
        {
          "attributes": {
            "NORMAL": 5,
            "POSITION": 4,
            "TEXCOORD_0": 6
          },
          "indices": 7,
          "material": 2,
          "mode": 4
        }
      ]
    },
    {
      "name": "Object_2",
      "primitives": [
        {
          "attributes": {
            "NORMAL": 9,
            "POSITION": 8,
            "TEXCOORD_0": 10
          },
          "indices": 11,
          "material": 8,
          "mode": 4
        }
      ]
    },
    {
      "name": "Object_3",
      "primitives": [
        {
          "attributes": {
            "NORMAL": 13,
            "POSITION": 12,
            "TEXCOORD_0": 14
          },
          "indices": 15,
          "material": 10,
          "mode": 4
        }
      ]
    },
    {
      "name": "Object_4",
      "primitives": [
        {
          "attributes": {
            "NORMAL": 17,
            "POSITION": 16,
            "TEXCOORD_0": 18
          },
          "indices": 19,
          "material": 11,
          "mode": 4
        }
      ]
    },
    {
      "name": "Object_5",
      "primitives": [
        {
          "attributes": {
            "NORMAL": 21,
            "POSITION": 20,
            "TANGENT": 22,
            "TEXCOORD_0": 23
          },
          "indices": 24,
          "material": 13,
          "mode": 4
        }
      ]
    },
    {
      "name": "Object_6",
      "primitives": [
        {
          "attributes": {
            "NORMAL": 26,
            "POSITION": 25,
            "TEXCOORD_0": 27
          },
          "indices": 28,
          "material": 14,
          "mode": 4
        }
      ]
    },
    {
      "name": "Object_7",
      "primitives": [
        {
          "attributes": {
            "NORMAL": 30,
            "POSITION": 29,
            "TEXCOORD_0": 31
          },
          "indices": 32,
          "material": 15,
          "mode": 4
        }
      ]
    },
    {
      "name": "Object_8",
      "primitives": [
        {
          "attributes": {
            "NORMAL": 34,
            "POSITION": 33,
            "TEXCOORD_0": 35
          },
          "indices": 36,
          "material": 16,
          "mode": 4
        }
      ]
    },
    {
      "name": "Object_9",
      "primitives": [
        {
          "attributes": {
            "NORMAL": 38,
            "POSITION": 37,
            "TEXCOORD_0": 39
          },
          "indices": 40,
          "material": 23,
          "mode": 4
        }
      ]
    },
    {
      "name": "Object_10",
      "primitives": [
        {
          "attributes": {
            "NORMAL": 42,
            "POSITION": 41,
            "TEXCOORD_0": 43
          },
          "indices": 44,
          "material": 25,
          "mode": 4
        }
      ]
    },
    {
      "name": "Object_11",
      "primitives": [
        {
          "attributes": {
            "NORMAL": 46,
            "POSITION": 45,
            "TEXCOORD_0": 47
          },
          "indices": 48,
          "material": 1,
          "mode": 4
        }
      ]
    },
    {
      "name": "Object_12",
      "primitives": [
        {
          "attributes": {
            "NORMAL": 50,
            "POSITION": 49,
            "TEXCOORD_0": 51
          },
          "indices": 52,
          "material": 3,
          "mode": 4
        }
      ]
    },
    {
      "name": "Object_13",
      "primitives": [
        {
          "attributes": {
            "NORMAL": 54,
            "POSITION": 53,
            "TEXCOORD_0": 55
          },
          "indices": 56,
          "material": 4,
          "mode": 4
        }
      ]
    },
    {
      "name": "Object_14",
      "primitives": [
        {
          "attributes": {
            "NORMAL": 58,
            "POSITION": 57,
            "TEXCOORD_0": 59
          },
          "indices": 60,
          "material": 5,
          "mode": 4
        }
      ]
    },
    {
      "name": "Object_15",
      "primitives": [
        {
          "attributes": {
            "NORMAL": 62,
            "POSITION": 61,
            "TEXCOORD_0": 63
          },
          "indices": 64,
          "material": 6,
          "mode": 4
        }
      ]
    },
    {
      "name": "Object_16",
      "primitives": [
        {
          "attributes": {
            "NORMAL": 66,
            "POSITION": 65,
            "TEXCOORD_0": 67
          },
          "indices": 68,
          "material": 7,
          "mode": 4
        }
      ]
    },
    {
      "name": "Object_17",
      "primitives": [
        {
          "attributes": {
            "NORMAL": 70,
            "POSITION": 69,
            "TEXCOORD_0": 71
          },
          "indices": 72,
          "material": 9,
          "mode": 4
        }
      ]
    },
    {
      "name": "Object_18",
      "primitives": [
        {
          "attributes": {
            "NORMAL": 74,
            "POSITION": 73,
            "TANGENT": 75,
            "TEXCOORD_0": 76
          },
          "indices": 77,
          "material": 12,
          "mode": 4
        }
      ]
    },
    {
      "name": "Object_19",
      "primitives": [
        {
          "attributes": {
            "NORMAL": 79,
            "POSITION": 78,
            "TEXCOORD_0": 80
          },
          "indices": 81,
          "material": 17,
          "mode": 4
        }
      ]
    },
    {
      "name": "Object_20",
      "primitives": [
        {
          "attributes": {
            "NORMAL": 83,
            "POSITION": 82,
            "TEXCOORD_0": 84
          },
          "indices": 85,
          "material": 18,
          "mode": 4
        }
      ]
    },
    {
      "name": "Object_21",
      "primitives": [
        {
          "attributes": {
            "NORMAL": 87,
            "POSITION": 86,
            "TEXCOORD_0": 88
          },
          "indices": 89,
          "material": 19,
          "mode": 4
        }
      ]
    },
    {
      "name": "Object_22",
      "primitives": [
        {
          "attributes": {
            "NORMAL": 91,
            "POSITION": 90,
            "TANGENT": 92,
            "TEXCOORD_0": 93
          },
          "indices": 94,
          "material": 20,
          "mode": 4
        }
      ]
    },
    {
      "name": "Object_23",
      "primitives": [
        {
          "attributes": {
            "NORMAL": 96,
            "POSITION": 95,
            "TEXCOORD_0": 97
          },
          "indices": 98,
          "material": 21,
          "mode": 4
        }
      ]
    },
    {
      "name": "Object_24",
      "primitives": [
        {
          "attributes": {
            "NORMAL": 100,
            "POSITION": 99,
            "TEXCOORD_0": 101
          },
          "indices": 102,
          "material": 22,
          "mode": 4
        }
      ]
    },
    {
      "name": "Object_25",
      "primitives": [
        {
          "attributes": {
            "NORMAL": 104,
            "POSITION": 103,
            "TEXCOORD_0": 105
          },
          "indices": 106,
          "material": 24,
          "mode": 4
        }
      ]
    },
    {
      "name": "Object_26",
      "primitives": [
        {
          "attributes": {
            "NORMAL": 108,
            "POSITION": 107,
            "TEXCOORD_0": 109
          },
          "indices": 110,
          "material": 26,
          "mode": 4
        }
      ]
    },
    {
      "name": "Object_27",
      "primitives": [
        {
          "attributes": {
            "NORMAL": 112,
            "POSITION": 111,
            "TEXCOORD_0": 113
          },
          "indices": 114,
          "material": 27,
          "mode": 4
        }
      ]
    }
  ],
  "nodes": [
    {
      "children": [
        1
      ],
      "matrix": [
        1.0,
        0.0,
        0.0,
        0.0,
        0.0,
        2.220446049250313e-16,
        -1.0,
        0.0,
        0.0,
        1.0,
        2.220446049250313e-16,
        0.0,
        0.0,
        0.0,
        0.0,
        1.0
      ],
      "name": "Sketchfab_model"
    },
    {
      "children": [
        2,
        3,
        4,
        5,
        6,
        7,
        8,
        9,
        10,
        11,
        12,
        13,
        14,
        15,
        16,
        17,
        18,
        19,
        20,
        21,
        22,
        23,
        24,
        25,
        26,
        27,
        28,
        29
      ],
      "name": "street.obj.cleaner.materialmerger.gles"
    },
    {
      "mesh": 0,
      "name": "Object_2"
    },
    {
      "mesh": 1,
      "name": "Object_3"
    },
    {
      "mesh": 2,
      "name": "Object_4"
    },
    {
      "mesh": 3,
      "name": "Object_5"
    },
    {
      "mesh": 4,
      "name": "Object_6"
    },
    {
      "mesh": 5,
      "name": "Object_7"
    },
    {
      "mesh": 6,
      "name": "Object_8"
    },
    {
      "mesh": 7,
      "name": "Object_9"
    },
    {
      "mesh": 8,
      "name": "Object_10"
    },
    {
      "mesh": 9,
      "name": "Object_11"
    },
    {
      "mesh": 10,
      "name": "Object_12"
    },
    {
      "mesh": 11,
      "name": "Object_13"
    },
    {
      "mesh": 12,
      "name": "Object_14"
    },
    {
      "mesh": 13,
      "name": "Object_15"
    },
    {
      "mesh": 14,
      "name": "Object_16"
    },
    {
      "mesh": 15,
      "name": "Object_17"
    },
    {
      "mesh": 16,
      "name": "Object_18"
    },
    {
      "mesh": 17,
      "name": "Object_19"
    },
    {
      "mesh": 18,
      "name": "Object_20"
    },
    {
      "mesh": 19,
      "name": "Object_21"
    },
    {
      "mesh": 20,
      "name": "Object_22"
    },
    {
      "mesh": 21,
      "name": "Object_23"
    },
    {
      "mesh": 22,
      "name": "Object_24"
    },
    {
      "mesh": 23,
      "name": "Object_25"
    },
    {
      "mesh": 24,
      "name": "Object_26"
    },
    {
      "mesh": 25,
      "name": "Object_27"
    },
    {
      "mesh": 26,
      "name": "Object_28"
    },
    {
      "mesh": 27,
      "name": "Object_29"
    }
  ],
  "samplers": [
    {
      "magFilter": 9729,
      "minFilter": 9987,
      "wrapS": 10497,
      "wrapT": 10497
    }
  ],
  "scene": 0,
  "scenes": [
    {
      "name": "Sketchfab_Scene",
      "nodes": [
        0
      ]
    }
  ],
  "textures": [
    {
      "sampler": 0,
      "source": 0
    },
    {
      "sampler": 0,
      "source": 1
    },
    {
      "sampler": 0,
      "source": 2
    },
    {
      "sampler": 0,
      "source": 3
    },
    {
      "sampler": 0,
      "source": 4
    },
    {
      "sampler": 0,
      "source": 5
    },
    {
      "sampler": 0,
      "source": 6
    },
    {
      "sampler": 0,
      "source": 7
    },
    {
      "sampler": 0,
      "source": 8
    },
    {
      "sampler": 0,
      "source": 9
    },
    {
      "sampler": 0,
      "source": 10
    },
    {
      "sampler": 0,
      "source": 11
    },
    {
      "sampler": 0,
      "source": 12
    },
    {
      "sampler": 0,
      "source": 13
    },
    {
      "sampler": 0,
      "source": 14
    }
  ]
}
